<svg id="Layer_2" data-name="Layer 2" xmlns="http://www.w3.org/2000/svg" viewBox="0 0 263.47 332"><defs><style>.cls-1{fill-rule:evenodd;}.cls-2{fill:#fff;}</style></defs><title>curious-coffee-white-on-black</title><path class="cls-1" d="M647.2,524.78c0-45.72,221.68-45.72,221.68,0,0,4.82-1.3,9.63-1.3,13.24,14.26-6,27.23-7.22,37.6,2.4,15.55,14.44-5.19,45.73-22,59-14.26,10.83-29.82,13.24-42.78,6-16.85,25.27-37.6,44.52-54.45,44.52h-57C699.05,649.92,647.2,572.91,647.2,524.78Zm57,33.69c-7.78,40.91,10.37,72.2,36.3,85.43-36.3-3.61-62.23-37.3-70-93.85A106.19,106.19,0,0,0,704.24,558.47Zm53.15-60.16c53.15,0,94.64,12,94.64,27.68,0,14.43-41.49,26.47-94.64,26.47-51.85,0-93.34-12-93.34-26.47C664.05,510.34,705.54,498.31,757.39,498.31Zm106.3,55.35c-3.89,15.64-11.66,31.28-19.44,46.93,6.48,3.61,16.85,3.61,28.52-6,19.44-14.44,24.63-33.69,16.85-42.11C885.73,547.64,874.06,550.05,863.69,553.66Z" transform="translate(-647.2 -348)"/><path class="cls-1" d="M839.06,615c15.56,4.81,24.63,12,24.63,19.25,0,18.05-48,32.48-107.6,32.48S647.2,652.33,647.2,634.28c0-7.22,11.67-15.65,29.82-20.46,13,19.25,32.41,40.91,51.85,40.91h57C805.36,654.73,824.8,634.28,839.06,615Z" transform="translate(-647.2 -348)"/><path class="cls-1" d="M813.14,665.56C805.36,674,782,680,756.09,680c-27.22,0-49.26-6-58.33-14.44,16.85,3.61,37.59,4.81,58.33,4.81S796.28,669.17,813.14,665.56Z" transform="translate(-647.2 -348)"/><path class="cls-1" d="M795,548.85c-11.67,1.2-23.34,2.4-37.6,2.4-46.67,0-85.56-12-85.56-25.26s31.11-22.87,72.6-25.27c-33.71,3.61-58.34,13.23-58.34,24.06C686.09,548.85,773,550.05,795,548.85Z" transform="translate(-647.2 -348)"/><path d="M714,376.81,745.64,348c26.12.56,45.87,4.5,59.44,11.95s20.25,16.58,20.25,27.4c0,7-2.68,14.48-7.87,22.21s-16.9,19.25-35.15,34.43c-21.1,17.71-31.65,30.22-31.65,37.67a16.09,16.09,0,0,0,1.51,5.34c-10.88-2.67-18.75-5.9-23.44-9.84a18.77,18.77,0,0,1-7.2-15.32,25.68,25.68,0,0,1,5.7-16.44c3.85-4.78,12.89-13.35,27.45-25.72,13.9-11.95,20.76-21.79,20.76-29.66,0-5.48-3.18-9.69-9.37-12.93s-14.57-4.78-24.78-4.78A109.27,109.27,0,0,0,714,376.81Z" transform="translate(-647.2 -348)"/><path d="M784,521.64c0,3.85-2.38,7.1-7.28,9.62s-10.94,3.85-18.09,3.85c-6.72,0-12.47-1.32-17.1-3.85s-6.86-5.77-6.86-9.5c0-4,2.38-7.22,7.14-10s10.52-4.09,17.24-4.09c7,0,12.9,1.32,17.81,4S784,517.67,784,521.64Z" transform="translate(-647.2 -348)"/><path class="cls-2" d="M727.68,600.77a7.46,7.46,0,0,1-4.81-2,7.63,7.63,0,0,1-2.6-4.48q-1.23-7.1-2.45-14.21a4.81,4.81,0,0,1,1.09-4.29,5,5,0,0,1,4.15-1.57,7.75,7.75,0,0,1,4.79,2,7.4,7.4,0,0,1,2.61,4.4c.18,1,.35,2,.52,2.94-1.39,0-2.77,0-4.15-.08-.18-1-.35-2-.53-3a2.75,2.75,0,0,0-1-1.62,2.8,2.8,0,0,0-1.74-.72,1.75,1.75,0,0,0-1.49.59,1.77,1.77,0,0,0-.39,1.56l2.46,14.2a2.73,2.73,0,0,0,1,1.61,2.67,2.67,0,0,0,1.72.7,1.86,1.86,0,0,0,1.52-.61,1.75,1.75,0,0,0,.4-1.56c-.2-1.19-.41-2.38-.62-3.57,1.38,0,2.77.05,4.15.05.22,1.2.43,2.4.64,3.6a5,5,0,0,1-1.1,4.35A5.12,5.12,0,0,1,727.68,600.77Z" transform="translate(-647.2 -348)"/><path class="cls-2" d="M743.67,600.53a7,7,0,0,1-4.84-1.61,6.86,6.86,0,0,1-2.62-4.28q-1.76-9.92-3.51-19.87l3.93,0q1.75,9.9,3.51,19.77a2.49,2.49,0,0,0,1,1.54,2.61,2.61,0,0,0,1.76.57,2,2,0,0,0,1.52-.72,1.87,1.87,0,0,0,.4-1.59q-1.77-9.84-3.52-19.7c1.4-.05,2.8-.12,4.2-.2q1.77,9.86,3.54,19.67a5.19,5.19,0,0,1-1.11,4.43A5.64,5.64,0,0,1,743.67,600.53Z" transform="translate(-647.2 -348)"/><path class="cls-2" d="M755.45,573.62a7,7,0,0,1,5.3,1.19,6.5,6.5,0,0,1,2.17,4.07l.66,3.65a5.51,5.51,0,0,1-1.34,4.8q2.5,5.28,5,10.52c-1.46.22-2.93.43-4.39.63q-2.1-4.56-4.19-9.17l-.37,0-2.34.26c.58,3.17,1.15,6.34,1.73,9.5-1.35.16-2.7.29-4.06.42q-2.28-12.66-4.57-25.35C751.18,574,753.31,573.84,755.45,573.62Zm3.53,5.82a2.19,2.19,0,0,0-2.72-1.94c-.82.09-1.63.17-2.45.24l1.47,8.1,2.45-.26a2.15,2.15,0,0,0,1.52-.84,2,2,0,0,0,.4-1.62C759.42,581.89,759.2,580.66,759,579.44Z" transform="translate(-647.2 -348)"/><path class="cls-2" d="M774.8,596.56l-4.06.72q-2.31-12.46-4.6-25c1.36-.2,2.71-.41,4.07-.64Q772.51,584.12,774.8,596.56Z" transform="translate(-647.2 -348)"/><path class="cls-2" d="M780.17,569.43a6.63,6.63,0,0,1,4.89.71,5.29,5.29,0,0,1,2.66,3.72q1.24,6.72,2.5,13.42a5.9,5.9,0,0,1-1.11,4.64,7,7,0,0,1-4.24,2.83A6.25,6.25,0,0,1,780,594a5.45,5.45,0,0,1-2.64-3.81q-1.26-6.76-2.51-13.56a5.66,5.66,0,0,1,1.11-4.58A6.84,6.84,0,0,1,780.17,569.43Zm3.3,5.35a1.91,1.91,0,0,0-1-1.35,2.32,2.32,0,0,0-1.76-.27,2.53,2.53,0,0,0-1.54,1,2.06,2.06,0,0,0-.41,1.66l2.52,13.56a1.93,1.93,0,0,0,1,1.36,2.34,2.34,0,0,0,1.77.24,2.46,2.46,0,0,0,1.52-1,2.06,2.06,0,0,0,.4-1.66Q784.72,581.54,783.47,574.78Z" transform="translate(-647.2 -348)"/><path class="cls-2" d="M801.25,590.31a6.08,6.08,0,0,1-4.85-.35,4.91,4.91,0,0,1-2.64-3.6q-1.77-9.47-3.54-19c1.32-.34,2.65-.69,4-1.06q1.77,9.45,3.53,18.86a1.73,1.73,0,0,0,1,1.29,2.25,2.25,0,0,0,1.77.12A2.76,2.76,0,0,0,802,585.5a2.22,2.22,0,0,0,.39-1.7q-1.75-9.37-3.52-18.78c1.4-.42,2.81-.85,4.21-1.29q1.77,9.39,3.53,18.75a6.14,6.14,0,0,1-1.11,4.72A7.77,7.77,0,0,1,801.25,590.31Z" transform="translate(-647.2 -348)"/><path class="cls-2" d="M823.05,575.78a7.48,7.48,0,0,1-.63,4.86,7.15,7.15,0,0,1-2.43,2.81,9.38,9.38,0,0,1-2.17,1.13,6.52,6.52,0,0,1-4.1.42,4.87,4.87,0,0,1-2.5-1.62,7.62,7.62,0,0,1-1.52-3.11c1.26-.52,2.52-1.06,3.78-1.61a4.09,4.09,0,0,0,1.8,2.59,2,2,0,0,0,1.79,0,3.36,3.36,0,0,0,1.87-2,3,3,0,0,0,.1-1.75,3.41,3.41,0,0,0-2.06-2.38c-.92-.38-2.3-.94-4.14-1.73a11.09,11.09,0,0,1-3.42-2.14,5.93,5.93,0,0,1-1.54-3.09,6.75,6.75,0,0,1,1.51-5.84,8.29,8.29,0,0,1,3.55-2.35,7.61,7.61,0,0,1,3.84-.5,4.26,4.26,0,0,1,2.27,1.13,5.35,5.35,0,0,1,1.4,2.43c-1.24.72-2.47,1.43-3.71,2.12a3.25,3.25,0,0,0-1.37-1.94,2,2,0,0,0-1.7,0,2.47,2.47,0,0,0-1.52,1.49,3.6,3.6,0,0,0-.13,1.94,4.2,4.2,0,0,0,2.21,2.79,9.94,9.94,0,0,0,2.07.87,21.82,21.82,0,0,1,2.12.77,9.67,9.67,0,0,1,2.78,1.73,7.35,7.35,0,0,1,.83.88A5,5,0,0,1,823.05,575.78Z" transform="translate(-647.2 -348)"/><path class="cls-2" d="M735.56,634.6a8.37,8.37,0,0,1-5.64-2.1,8.49,8.49,0,0,1-3-5.13q-1.44-8.24-2.87-16.49a5.72,5.72,0,0,1,1.27-5,6,6,0,0,1,4.87-2,8.8,8.8,0,0,1,5.62,2.11,8.18,8.18,0,0,1,3.06,5c.2,1.13.41,2.27.61,3.41l-4.87.09c-.21-1.18-.41-2.35-.62-3.52a3.08,3.08,0,0,0-1.12-1.85,3.2,3.2,0,0,0-2-.77,2.17,2.17,0,0,0-1.76.74,2.11,2.11,0,0,0-.45,1.84q1.44,8.25,2.89,16.47a3,3,0,0,0,1.1,1.84,3.13,3.13,0,0,0,2,.75,2.27,2.27,0,0,0,1.78-.78,2.1,2.1,0,0,0,.47-1.84c-.24-1.38-.49-2.75-.73-4.13,1.62,0,3.24-.07,4.87-.13.25,1.39.5,2.78.74,4.17a5.92,5.92,0,0,1-1.29,5.13A6.16,6.16,0,0,1,735.56,634.6Z" transform="translate(-647.2 -348)"/><path class="cls-2" d="M748.78,603.26a8.39,8.39,0,0,1,5.69,1.63,7.31,7.31,0,0,1,3.09,4.76q1.47,8,2.92,16a6.27,6.27,0,0,1-1.29,5.25,6.89,6.89,0,0,1-4.94,2.63,7.88,7.88,0,0,1-5.67-1.64,7.68,7.68,0,0,1-3.08-4.88q-1.46-8.12-2.9-16.24a6,6,0,0,1,1.29-5.16A6.71,6.71,0,0,1,748.78,603.26Zm3.84,6.78a2.69,2.69,0,0,0-1.12-1.73,2.94,2.94,0,0,0-2-.59,2.41,2.41,0,0,0-1.79.88,2.17,2.17,0,0,0-.48,1.86q1.47,8.13,2.92,16.23a2.7,2.7,0,0,0,1.13,1.74,3,3,0,0,0,2.06.58,2.47,2.47,0,0,0,1.78-.93,2.22,2.22,0,0,0,.46-1.88Q754.09,618.13,752.62,610Z" transform="translate(-647.2 -348)"/><path class="cls-2" d="M770.61,631c-1.59.27-3.17.52-4.75.75q-2.67-14.62-5.36-29.32c4.5-.55,9-1.25,13.5-2.07l.81,4.4c-2.92.54-5.84,1-8.75,1.47.48,2.66,1,5.31,1.46,8q3.19-.5,6.4-1.08l.81,4.4c-2.13.4-4.27.77-6.4,1.11Z" transform="translate(-647.2 -348)"/><path class="cls-2" d="M787.36,627.58q-2.37.58-4.74,1.11-2.67-14.43-5.36-28.92,6.75-1.34,13.49-3.08l.81,4.34q-4.37,1.14-8.75,2.12l1.47,7.87c2.13-.49,4.26-1,6.39-1.57l.81,4.34q-3.19.84-6.39,1.59Q786.23,621.49,787.36,627.58Z" transform="translate(-647.2 -348)"/><path class="cls-2" d="M799.34,624.33q-2.67-14.22-5.34-28.51,6.74-1.85,13.42-4.1l.81,4.28q-4.34,1.47-8.7,2.78c.49,2.59,1,5.17,1.46,7.76q3.18-1,6.35-2l.81,4.28c-2.12.71-4.23,1.4-6.35,2.06.48,2.58,1,5.16,1.45,7.74q4.35-1.38,8.68-2.93c.27,1.42.54,2.84.8,4.26Q806.07,622.33,799.34,624.33Z" transform="translate(-647.2 -348)"/><path class="cls-2" d="M816,618.72q-2.64-14-5.29-28.11,6.68-2.36,13.3-5.11c.26,1.41.53,2.82.79,4.22q-4.29,1.81-8.61,3.44c.48,2.55,1,5.1,1.45,7.64q3.15-1.21,6.28-2.52c.27,1.41.54,2.82.8,4.22q-3.13,1.32-6.28,2.55.72,3.81,1.43,7.63,4.32-1.71,8.59-3.59c.27,1.4.53,2.8.79,4.2Q822.61,616.22,816,618.72Z" transform="translate(-647.2 -348)"/></svg>