<?xml version="1.0" encoding="utf-8"?>
<!-- Generator: Adobe Illustrator 23.0.1, SVG Export Plug-In . SVG Version: 6.00 Build 0)  -->
<svg version="1.1" id="Layer_1" xmlns="http://www.w3.org/2000/svg" xmlns:xlink="http://www.w3.org/1999/xlink" x="0px" y="0px"
	 viewBox="0 0 324 405" style="enable-background:new 0 0 324 405;" xml:space="preserve">
<style type="text/css">
	.st0{fill-rule:evenodd;clip-rule:evenodd;}
</style>
<g>
	<path class="st0" d="M76,163c0-38,171-38,171,0c0,4-1,8-1,11c11-5,21-6,29,2c12,12-4,38-17,49c-11,9-23,11-33,5c-13,21-29,37-42,37
		h-44C116,267,76,203,76,163z M120,191c-6,34,8,60,28,71c-28-3-48-31-54-78C103,188,110,190,120,191z M161,141c41,0,73,10,73,23
		c0,12-32,22-73,22c-40,0-72-10-72-22C89,151,121,141,161,141z M243,187c-3,13-9,26-15,39c5,3,13,3,22-5c15-12,19-28,13-35
		C260,182,251,184,243,187z"/>
	<path class="st0" d="M224,238c12,4,19,10,19,16c0,15-37,27-83,27s-84-12-84-27c0-6,9-13,23-17c10,16,25,34,40,34h44
		C198,271,213,254,224,238z"/>
	<path class="st0" d="M204,280c-6,7-24,12-44,12c-21,0-38-5-45-12c13,3,29,4,45,4S191,283,204,280z"/>
	<path class="st0" d="M190,183c-9,1-18,2-29,2c-36,0-66-10-66-21s24-19,56-21c-26,3-45,11-45,20C106,183,173,184,190,183z"/>
	<path d="M162,0c90,0,162,73,162,162c0,90-72,162-162,162C73,324,0,252,0,162C0,73,73,0,162,0z M162,13C80,13,13,80,13,162
		s67,149,149,149s149-67,149-149S244,13,162,13z"/>
</g>
<path d="M136.4,53.2l18.9-20.5c15.6,0.4,27.4,3.2,35.5,8.5c8.1,5.3,12.1,11.8,12.1,19.5c0,5-1.6,10.3-4.7,15.8
	c-3.1,5.6-10.1,13.7-21,24.5c-12.6,12.6-18.9,21.5-18.9,26.8c0,0.8,0.3,2.1,0.9,3.8c-6.5-1.9-11.2-4.2-14-7
	c-2.8-2.7-4.3-6.3-4.3-10.9c0-4.4,1.1-8.2,3.4-11.7c2.3-3.4,7.7-9.5,16.4-18.3c8.3-8.5,12.4-15.5,12.4-21.1c0-3.9-1.9-6.9-5.6-9.2
	s-8.7-3.4-14.8-3.4C148.1,50.1,142.6,51.1,136.4,53.2z M180.5,155.4c0,3.2-1.7,5.9-5.2,8c-3.5,2.2-7.8,3.2-12.9,3.2
	c-4.8,0-8.9-1.1-12.2-3.2c-3.3-2.1-4.9-4.8-4.9-7.9c0-3.3,1.7-6,5.1-8.3c3.4-2.3,7.5-3.4,12.3-3.4c5,0,9.2,1.1,12.7,3.3
	C178.8,149.4,180.5,152.1,180.5,155.4z"/>
</svg>
