<svg xmlns="http://www.w3.org/2000/svg" xmlns:xlink="http://www.w3.org/1999/xlink" xml:space="preserve" version="1.1" style="shape-rendering:geometricPrecision;text-rendering:geometricPrecision;image-rendering:optimizeQuality;" viewBox="0 0 324 405" x="0px" y="0px" fill-rule="evenodd" clip-rule="evenodd"><defs><style type="text/css">
   
    .fil0 {fill:black}
    .fil1 {fill:black;fill-rule:nonzero}
   
  </style></defs><g><path class="fil0" d="M76 163c0,-38 171,-38 171,0 0,4 -1,8 -1,11 11,-5 21,-6 29,2 12,12 -4,38 -17,49 -11,9 -23,11 -33,5 -13,21 -29,37 -42,37l-44 0c-23,0 -63,-64 -63,-104zm44 28c-6,34 8,60 28,71 -28,-3 -48,-31 -54,-78 9,4 16,6 26,7zm41 -50c41,0 73,10 73,23 0,12 -32,22 -73,22 -40,0 -72,-10 -72,-22 0,-13 32,-23 72,-23zm82 46c-3,13 -9,26 -15,39 5,3 13,3 22,-5 15,-12 19,-28 13,-35 -3,-4 -12,-2 -20,1z"/><path class="fil0" d="M224 238c12,4 19,10 19,16 0,15 -37,27 -83,27 -46,0 -84,-12 -84,-27 0,-6 9,-13 23,-17 10,16 25,34 40,34l44 0c15,0 30,-17 41,-33z"/><path class="fil0" d="M204 280c-6,7 -24,12 -44,12 -21,0 -38,-5 -45,-12 13,3 29,4 45,4 16,0 31,-1 44,-4z"/><path class="fil0" d="M190 183c-9,1 -18,2 -29,2 -36,0 -66,-10 -66,-21 0,-11 24,-19 56,-21 -26,3 -45,11 -45,20 0,20 67,21 84,20z"/><path class="fil0" d="M167 91c56,26 -29,40 10,76 -69,-34 25,-46 -10,-76z"/><path class="fil0" d="M162 33c56,26 -28,40 10,76 -69,-35 25,-47 -10,-76z"/><path class="fil1" d="M162 0c90,0 162,73 162,162 0,90 -72,162 -162,162 -89,0 -162,-72 -162,-162 0,-89 73,-162 162,-162zm0 13c-82,0 -149,67 -149,149 0,82 67,149 149,149 82,0 149,-67 149,-149 0,-82 -67,-149 -149,-149z"/></g></svg>